<?xml version="1.0" standalone="no"?>
<!DOCTYPE svg PUBLIC "-//W3C//DTD SVG 20010904//EN"
 "http://www.w3.org/TR/2001/REC-SVG-20010904/DTD/svg10.dtd">
<svg version="1.0" xmlns="http://www.w3.org/2000/svg"
 width="20pt" height="20pt" viewBox="0 0 267.000000 254.000000"
 preserveAspectRatio="xMidYMid meet">

<g transform="translate(0.000000,254.000000) scale(0.100000,-0.100000)"
fill="#AF9D81" stroke="none">
<path d="M1277 2472 c-9 -10 -89 -191 -178 -402 -89 -212 -163 -386 -164 -388
-1 -1 -193 -18 -426 -38 -384 -33 -426 -38 -447 -57 -28 -26 -28 -59 1 -90 12
-14 158 -143 324 -286 167 -144 303 -268 303 -275 0 -7 -43 -197 -95 -422 -95
-406 -95 -409 -77 -434 37 -49 47 -45 436 190 l366 221 366 -221 c267 -161
373 -220 392 -218 14 2 33 14 44 28 18 25 18 28 -77 434 -52 225 -95 415 -95
422 0 7 144 138 320 291 309 266 341 300 327 337 -15 38 -48 44 -471 80 -231
20 -420 37 -421 39 -1 1 -75 175 -164 387 -89 211 -169 392 -178 402 -9 10
-28 18 -43 18 -15 0 -34 -8 -43 -18z"/>
</g>
</svg>
