<?xml version="1.0" standalone="no"?>
<!DOCTYPE svg PUBLIC "-//W3C//DTD SVG 20010904//EN"
 "http://www.w3.org/TR/2001/REC-SVG-20010904/DTD/svg10.dtd">
<svg version="1.0" xmlns="http://www.w3.org/2000/svg"
 width="50pt" height="59pt" viewBox="0 0 512.000000 512.000000"
 preserveAspectRatio="xMidYMid meet">

<g transform="translate(0.000000,512.000000) scale(0.100000,-0.100000)"
fill="#4e448b" stroke="none">
<path d="M0 5035 l0 -85 85 0 85 0 0 85 0 85 -85 0 -85 0 0 -85z"/>
<path d="M340 5035 l0 -85 85 0 85 0 0 85 0 85 -85 0 -85 0 0 -85z"/>
<path d="M2470 4950 l0 -170 90 0 90 0 0 170 0 170 -90 0 -90 0 0 -170z"/>
<path d="M0 4695 l0 -85 85 0 85 0 0 85 0 85 -85 0 -85 0 0 -85z"/>
<path d="M2188 4595 c-23 -13 -35 -42 -93 -217 -37 -112 -72 -208 -79 -215 -6
-6 -55 -30 -108 -52 l-98 -40 -177 84 c-108 52 -191 85 -210 85 -98 0 -543
-445 -543 -543 0 -19 33 -102 85 -209 l84 -177 -40 -98 c-23 -54 -46 -103 -53
-109 -6 -7 -102 -42 -214 -79 -182 -60 -204 -70 -217 -95 -12 -24 -15 -88 -15
-369 0 -355 3 -378 44 -400 11 -6 106 -40 210 -74 l190 -63 44 -105 c24 -57
44 -108 44 -114 0 -5 -36 -87 -81 -181 -46 -98 -81 -185 -81 -202 0 -96 446
-542 542 -542 18 0 106 35 207 83 l176 83 71 -31 c38 -17 88 -37 110 -46 l39
-16 68 -206 c62 -187 71 -209 97 -222 24 -12 88 -15 369 -15 233 0 348 4 365
11 32 15 41 36 112 253 45 136 64 180 79 187 11 4 61 25 110 46 l91 39 174
-83 c103 -48 188 -83 207 -83 96 -1 543 445 543 542 0 17 -35 104 -81 202 -45
94 -81 176 -81 181 0 6 20 57 44 114 l44 105 190 63 c218 72 228 77 243 110
16 34 15 693 0 727 -15 32 -36 41 -249 111 -96 32 -180 62 -186 69 -7 6 -30
55 -52 109 l-41 97 85 179 c48 103 84 192 84 209 0 97 -446 542 -543 542 -19
0 -102 -33 -209 -85 l-177 -84 -98 40 c-54 23 -103 46 -109 53 -7 6 -37 90
-69 186 -70 213 -79 234 -111 249 -17 7 -132 11 -367 11 -279 -1 -347 -3 -369
-15z m701 -347 c35 -106 71 -201 80 -210 15 -16 322 -148 343 -148 13 0 140
57 272 122 115 56 95 61 231 -59 77 -69 215 -218 237 -257 4 -7 -28 -87 -72
-180 -44 -92 -82 -178 -85 -189 -7 -26 116 -333 143 -358 9 -9 104 -45 210
-80 l192 -64 0 -265 0 -265 -192 -64 c-106 -35 -201 -70 -210 -78 -9 -9 -27
-45 -39 -82 -12 -36 -42 -109 -66 -161 -29 -63 -42 -103 -38 -118 3 -12 41
-97 85 -189 92 -192 95 -160 -27 -298 -69 -77 -218 -215 -257 -237 -6 -3 -87
29 -179 73 -93 43 -178 81 -190 84 -14 4 -56 -10 -117 -38 -52 -24 -125 -54
-161 -66 -37 -12 -73 -30 -82 -39 -8 -9 -43 -104 -78 -209 l-64 -193 -265 0
-265 0 -64 192 c-35 106 -70 201 -78 210 -9 9 -45 27 -82 39 -36 12 -109 42
-161 66 -60 28 -103 42 -117 39 -11 -3 -97 -42 -189 -86 l-168 -79 -35 26
c-102 76 -298 275 -333 338 -5 7 25 81 72 179 44 91 82 176 85 188 4 15 -9 55
-38 118 -24 52 -54 125 -66 161 -12 37 -30 73 -39 82 -9 8 -104 43 -209 78
l-193 64 0 265 0 265 193 64 c105 35 200 71 209 80 28 27 150 332 143 359 -3
12 -41 97 -85 189 -92 192 -95 160 27 298 69 78 218 215 258 237 7 5 81 -25
179 -72 91 -44 176 -82 189 -85 26 -7 331 115 358 143 9 9 45 104 80 210 l64
192 265 0 265 0 64 -192z"/>
<path d="M2455 3919 c-315 -21 -605 -152 -841 -381 -165 -160 -278 -338 -348
-548 -48 -145 -68 -269 -68 -430 0 -161 20 -285 68 -430 70 -210 183 -388 348
-548 262 -254 581 -383 946 -383 282 0 522 73 760 229 106 70 268 226 343 331
346 479 346 1123 0 1602 -75 105 -237 261 -343 331 -266 175 -542 247 -865
227z m332 -188 c414 -81 754 -372 898 -771 105 -292 83 -655 -58 -935 -108
-215 -317 -424 -532 -532 -326 -164 -743 -165 -1066 -3 -222 112 -426 316
-536 535 -165 328 -165 742 0 1070 134 267 382 487 667 590 182 66 432 84 627
46z"/>
<path d="M3135 3230 c-11 -4 -202 -191 -425 -414 l-405 -406 -170 170 c-131
131 -178 171 -203 176 -32 7 -38 1 -213 -172 -165 -164 -179 -181 -179 -214 0
-33 21 -57 358 -393 l358 -357 49 0 50 0 597 598 c558 558 598 599 598 632 0
31 -16 50 -172 206 -172 172 -201 193 -243 174z m-310 -900 l-520 -520 -280
280 -280 280 90 90 89 90 171 -170 c163 -162 173 -170 210 -170 39 0 49 10
450 410 l410 410 90 -90 90 -90 -520 -520z"/>
<path d="M745 4370 l-60 -60 123 -123 122 -122 62 63 63 62 -120 120 c-66 66
-122 120 -125 120 -3 0 -32 -27 -65 -60z"/>
<path d="M4185 4310 l-120 -120 63 -62 62 -63 122 122 123 123 -60 60 c-33 33
-62 60 -65 60 -3 0 -59 -54 -125 -120z"/>
<path d="M0 2560 l0 -90 170 0 170 0 0 90 0 90 -170 0 -170 0 0 -90z"/>
<path d="M4780 2560 l0 -90 170 0 170 0 0 90 0 90 -170 0 -170 0 0 -90z"/>
<path d="M805 930 l-120 -120 63 -62 62 -63 122 122 123 123 -60 60 c-33 33
-62 60 -65 60 -3 0 -59 -54 -125 -120z"/>
<path d="M4125 990 l-60 -60 121 -121 121 -121 61 64 61 63 -117 118 c-64 64
-119 117 -122 117 -3 0 -32 -27 -65 -60z"/>
<path d="M4950 425 l0 -85 85 0 85 0 0 85 0 85 -85 0 -85 0 0 -85z"/>
<path d="M2470 170 l0 -170 90 0 90 0 0 170 0 170 -90 0 -90 0 0 -170z"/>
<path d="M4610 85 l0 -85 85 0 85 0 0 85 0 85 -85 0 -85 0 0 -85z"/>
<path d="M4950 85 l0 -85 85 0 85 0 0 85 0 85 -85 0 -85 0 0 -85z"/>
</g>
</svg>
