<?xml version="1.0" standalone="no"?>
<!DOCTYPE svg PUBLIC "-//W3C//DTD SVG 20010904//EN"
 "http://www.w3.org/TR/2001/REC-SVG-20010904/DTD/svg10.dtd">
<svg version="1.0" xmlns="http://www.w3.org/2000/svg"
 width="50pt" height="59pt" viewBox="0 0 512.000000 512.000000"
 preserveAspectRatio="xMidYMid meet">

<g transform="translate(0.000000,512.000000) scale(0.100000,-0.100000)"
fill="#4e448b" stroke="none">
<path d="M1615 4794 c-680 -240 -927 -332 -945 -350 l-25 -24 0 -908 c0 -943
4 -1068 45 -1377 118 -876 468 -1353 1385 -1887 195 -114 436 -239 472 -245
25 -4 54 6 145 52 398 202 767 438 993 636 513 446 707 883 777 1749 9 121 13
405 13 1072 l0 908 -25 24 c-19 18 -265 109 -948 350 -508 179 -934 326 -945
325 -12 0 -436 -146 -942 -325z m1809 -199 l849 -299 -6 -851 c-6 -827 -11
-982 -42 -1248 -105 -886 -460 -1329 -1513 -1891 -79 -42 -147 -76 -152 -76
-5 0 -73 34 -152 76 -559 299 -878 537 -1124 839 -207 255 -335 601 -389 1052
-31 267 -36 421 -42 1248 l-6 851 849 301 c467 165 856 300 864 299 9 0 398
-136 864 -301z"/>
<path d="M3705 3618 c-21 -5 -244 -222 -747 -725 l-718 -718 -398 398 c-278
278 -406 399 -427 405 -42 11 -69 5 -99 -23 -30 -27 -41 -64 -32 -102 10 -39
890 -919 929 -929 15 -3 39 -3 55 0 38 10 1558 1530 1568 1569 9 38 -2 75 -32
102 -29 27 -59 34 -99 23z"/>
</g>
</svg>
