<svg version="1.1" id="Layer_1" xmlns="http://www.w3.org/2000/svg" xmlns:xlink="http://www.w3.org/1999/xlink" x="0px" y="0px"
	 width="33pt" viewBox="0 0 352 368" enable-background="new 0 0 352 368" xml:space="preserve">
<path fill="#f9fff8" opacity="1.000000" stroke="none" 
	d="
M147.099014,241.024109 
	C146.821594,236.080322 149.019913,230.353333 146.288101,227.502304 
	C143.287491,224.370728 137.429321,226.750809 132.829834,226.444366 
	C130.009857,226.256470 127.166786,226.443130 124.335182,226.395981 
	C116.472031,226.265106 111.008568,221.331482 110.840134,213.379333 
	C110.565018,200.389984 110.592072,187.387177 110.836678,174.396545 
	C110.979431,166.814682 115.093491,162.537369 122.663666,161.321960 
	C128.949524,160.312775 135.305328,160.876053 141.618912,160.966080 
	C145.763474,161.025192 147.181107,159.492279 147.166519,155.418839 
	C147.126663,144.279602 147.038651,133.139252 149.562103,122.145271 
	C156.079437,93.751060 179.875977,74.651192 209.000565,74.648666 
	C220.829819,74.647644 232.659180,74.621880 244.488312,74.662033 
	C252.308014,74.688576 257.221436,79.469543 257.304749,87.407349 
	C257.430573,99.401878 257.408813,111.399254 257.313843,123.394341 
	C257.253998,130.951492 253.364548,135.497574 245.749710,136.649017 
	C237.815125,137.848816 229.781647,136.801285 221.799942,137.218994 
	C215.235214,137.562546 214.179291,138.387451 214.381165,144.927582 
	C214.538055,150.010025 212.048447,156.432053 215.579742,159.819199 
	C218.850052,162.955994 225.138092,160.602554 230.088531,160.865479 
	C234.570984,161.103561 239.113983,160.772568 243.540756,161.363373 
	C251.597885,162.438690 255.661057,166.388992 255.926422,174.448914 
	C256.359192,187.594437 256.400055,200.779114 255.893158,213.919769 
	C255.574707,222.175613 250.330872,226.325043 241.998566,226.385391 
	C234.501465,226.439713 226.995575,226.633286 219.509628,226.346451 
	C215.294754,226.184967 214.185547,227.659943 214.210083,231.762512 
	C214.377441,259.751923 214.311737,287.742737 214.305832,315.733093 
	C214.303391,327.231384 209.396057,332.175385 197.923706,332.204132 
	C186.594345,332.232544 175.264740,332.230438 163.935455,332.186584 
	C152.076508,332.140686 147.272598,327.587463 147.159866,315.492249 
	C146.965790,294.667908 147.108063,273.840485 147.107880,253.014343 
	C147.107834,249.182617 147.101608,245.350891 147.099014,241.024109 
M235.253799,120.738197 
	C240.307892,121.515823 242.058792,119.408684 241.740219,114.321327 
	C241.334747,107.846359 241.483597,101.322975 241.682465,94.829323 
	C241.790878,91.289909 240.397064,90.158051 236.993591,90.215019 
	C227.162872,90.379555 217.318100,90.040596 207.497452,90.403297 
	C184.922119,91.237091 167.004333,108.266632 164.192078,130.726456 
	C162.754364,142.208755 163.618790,153.686432 163.358368,165.163177 
	C163.161667,173.831726 159.988998,177.166016 151.216293,177.261154 
	C144.717010,177.331665 138.213089,177.421967 131.717972,177.249191 
	C128.239746,177.156677 126.987892,178.482224 127.057228,181.925385 
	C127.218269,189.922089 127.251480,197.927185 127.064995,205.922546 
	C126.976486,209.717072 128.523651,210.836655 132.119202,210.712234 
	C138.278381,210.499084 144.450424,210.650406 150.617050,210.660919 
	C160.611725,210.677963 163.323029,213.384659 163.325775,223.415146 
	C163.333710,252.414993 163.396622,281.415222 163.244675,310.414276 
	C163.222839,314.578644 164.559921,315.980225 168.676270,315.834015 
	C175.833847,315.579742 183.007004,315.762726 190.173630,315.765259 
	C197.952332,315.768005 197.956787,315.769409 197.958160,307.760620 
	C197.963013,279.594086 197.930756,251.427505 197.986023,223.261078 
	C198.004822,213.675461 201.082840,210.675415 210.525757,210.656052 
	C218.359009,210.639984 226.206741,210.363083 234.020309,210.754913 
	C238.836487,210.996445 240.022446,209.164108 239.846207,204.725769 
	C239.555511,197.404190 239.591919,190.055893 239.851089,182.731628 
	C239.994324,178.683899 238.777634,177.063858 234.520370,177.209000 
	C226.529785,177.481445 218.522964,177.316940 210.523254,177.271698 
	C201.505020,177.220688 198.132217,173.995468 198.032745,164.916245 
	C197.939743,156.427856 197.734940,147.935013 198.653854,139.453369 
	C199.697510,129.820145 205.773026,123.322098 215.372070,121.609161 
	C221.670166,120.485275 227.991470,120.828316 235.253799,120.738197 
z"/>
</svg>