<svg version="1.1" id="Layer_1" xmlns="http://www.w3.org/2000/svg" xmlns:xlink="http://www.w3.org/1999/xlink" x="0px" y="0px"
	 width="55pt" height="59pt" viewBox="0 0 640 656" enable-background="new 0 0 640 656" xml:space="preserve">
<path fill="#4e448b" opacity="1.000000" stroke="none" 
	d="
M260.663544,632.458862 
	C242.071518,633.338806 228.669785,624.318787 216.566971,611.988647 
	C196.391388,591.434082 175.899414,571.190247 155.547119,550.809021 
	C137.191666,532.427551 118.861778,514.020447 100.489754,495.655548 
	C80.471886,475.645386 60.631264,455.451324 40.315247,435.747955 
	C23.192299,419.141327 17.707077,399.824799 24.858410,377.093964 
	C27.364195,369.129211 32.604088,362.784119 38.415474,356.960083 
	C55.949608,339.387665 73.530907,321.862274 91.094612,304.319366 
	C122.217201,273.233704 153.330414,242.138687 184.465973,211.066010 
	C220.196167,175.407974 255.949326,139.772980 291.679413,104.114845 
	C293.539581,102.258400 295.276886,100.278877 297.881989,97.488388 
	C257.915558,89.078842 218.897842,81.167068 178.554794,84.438683 
	C184.252533,90.378723 191.108948,94.083908 197.905746,97.857758 
	C210.307922,104.743927 223.556564,109.794342 236.492096,115.523254 
	C240.513870,117.304420 243.607758,119.914062 244.108170,124.611549 
	C245.021912,133.188889 237.501373,138.774643 228.711502,135.458405 
	C215.939346,130.639755 203.447159,125.127090 191.328674,118.767731 
	C181.859589,113.798683 172.725723,108.394714 164.454269,101.579445 
	C161.334610,99.009003 158.703796,96.046066 156.443222,92.718010 
	C150.419098,83.849220 152.745300,73.265923 162.024582,67.823395 
	C168.010010,64.312790 174.591782,62.380066 181.451080,61.957813 
	C198.585556,60.903042 215.636322,61.417648 232.666794,64.194038 
	C243.473511,65.955803 254.445816,66.761543 265.236725,68.772552 
	C287.955414,73.006447 310.565399,77.754623 332.915436,83.648476 
	C356.566986,89.885529 380.055115,96.715668 403.140289,104.811249 
	C432.382843,115.066116 461.615631,125.433464 487.511688,143.071457 
	C493.015350,146.820023 498.005493,151.157608 502.291595,156.388184 
	C512.576294,168.939209 506.199799,181.622833 492.642456,186.010376 
	C488.089233,187.483948 483.244202,188.194504 478.476105,188.831253 
	C472.269440,189.660126 466.864532,185.684494 465.880219,180.001877 
	C464.915710,174.433655 468.950226,169.033752 475.141541,167.812744 
	C477.387817,167.369751 479.709320,167.299561 482.288818,165.789597 
	C476.991669,161.008820 470.933838,157.959213 465.146057,154.531052 
	C463.430176,153.514709 461.581726,152.724197 459.810333,151.799042 
	C451.416168,147.414917 451.447540,147.419754 448.713867,156.641464 
	C441.314240,181.603378 461.044128,207.145813 486.480011,207.030106 
	C505.661743,206.942825 524.195374,192.943665 526.303711,170.982986 
	C528.080444,152.476273 516.779968,133.802887 495.542908,128.828461 
	C491.998840,127.998329 488.289886,127.894737 484.712769,127.177803 
	C479.689331,126.170990 476.597931,122.439873 476.259491,117.396408 
	C475.936554,112.583778 478.804352,108.421356 483.564026,106.656631 
	C488.905426,104.676224 494.284546,105.959824 499.317383,107.272697 
	C524.347229,113.802063 541.302917,129.429764 546.620300,154.867432 
	C554.039368,190.358978 530.726196,221.882782 496.197754,227.990814 
	C463.592438,233.758652 430.619385,209.871109 425.988007,175.820251 
	C424.520386,165.029816 425.140717,154.029236 430.223480,144.070023 
	C432.711578,139.194733 430.294312,138.003677 426.681488,136.563538 
	C404.395416,127.679741 381.683746,120.043533 358.668091,113.301132 
	C348.931885,110.448929 339.104797,107.896416 329.421600,104.878517 
	C325.122070,103.538506 322.187958,104.197639 318.870941,107.528114 
	C272.891968,153.693436 226.773819,199.720261 180.652893,245.744064 
	C151.885529,274.450867 123.052307,303.091675 94.256340,331.769836 
	C80.799706,345.171417 67.304466,358.534882 53.929878,372.017944 
	C39.327248,386.738983 39.419640,403.900055 54.117989,418.609802 
	C114.782654,479.321381 175.459976,540.020325 236.153030,600.703552 
	C249.785294,614.333557 268.207550,613.956909 281.756714,600.246460 
	C301.769043,579.995850 322.030884,559.992065 342.134460,539.831360 
	C375.285156,506.586395 408.357025,473.262695 441.531311,440.041260 
	C476.491394,405.031616 511.651581,370.220917 546.481628,335.082703 
	C561.015930,320.419769 576.492554,306.642609 589.686157,290.694214 
	C600.638672,277.454803 606.790161,262.266632 606.816589,244.865158 
	C606.901001,189.367279 606.728394,133.867172 607.209473,78.372726 
	C607.385498,58.076618 592.588806,46.323170 574.806885,46.343346 
	C521.974548,46.403294 469.142029,46.311008 416.309814,46.402180 
	C392.586304,46.443119 372.045868,54.382198 355.211731,71.487801 
	C347.717133,79.103271 339.950439,78.772179 335.676880,71.223862 
	C332.926819,66.366486 334.221313,62.028690 337.730621,58.444408 
	C356.964172,38.799984 379.664948,25.954304 407.772095,25.784586 
	C464.769012,25.440424 521.769470,25.608688 578.768311,25.687729 
	C602.263977,25.720310 622.635559,42.067665 627.833252,65.102600 
	C628.920105,69.919334 629.030029,75.029526 629.038147,80.005394 
	C629.123779,132.170990 628.888489,184.337936 629.180054,236.502060 
	C629.352356,267.333435 618.697571,293.340790 596.906433,315.050934 
	C567.401733,344.445831 538.054993,373.999237 508.647736,403.491882 
	C438.168396,474.175934 367.695984,544.866882 297.213348,615.547668 
	C287.232513,625.556519 275.666260,632.214355 260.663544,632.458862 
z"/>
<path fill="#4e448b" opacity="1.000000" stroke="none" 
	d="
M261.154114,334.743896 
	C284.633667,335.067963 301.584442,354.752991 297.966156,377.377869 
	C297.362823,381.150482 298.648285,382.010803 301.692169,382.696625 
	C313.198578,385.289062 324.676422,388.008636 336.158966,390.706177 
	C338.073639,391.155975 339.958466,391.732788 341.574799,392.173859 
	C342.611420,394.442993 341.451630,395.848389 340.627563,397.210815 
	C336.221710,404.494690 331.136475,411.265076 325.316132,417.499664 
	C322.977905,420.004272 320.645203,420.554535 317.318390,419.466705 
	C305.944244,415.747620 294.434692,412.442535 283.062286,408.718384 
	C279.494385,407.550018 277.351318,408.350555 275.565582,412.503479 
	C282.707092,419.512970 289.864929,426.915131 297.463562,433.833038 
	C301.101746,437.145355 301.221741,439.735901 298.372650,443.500549 
	C294.321686,448.853394 289.455353,453.366425 284.743103,458.065704 
	C281.713623,461.086823 279.440735,461.262848 276.136749,457.913513 
	C254.620041,436.101562 232.417358,414.989349 210.084366,394.015472 
	C201.489334,385.943481 201.413788,385.868286 208.250122,376.214508 
	C216.159683,365.045258 224.845001,354.532318 235.459015,345.770905 
	C242.814697,339.699097 251.128967,335.769409 261.154114,334.743896 
M243.028473,377.146759 
	C242.600861,381.465210 246.545242,382.815765 248.773422,385.142700 
	C257.111145,393.849915 257.222046,393.743713 265.249847,384.382507 
	C270.859558,377.841034 270.454468,374.586792 263.554260,369.385254 
	C259.905304,366.634521 256.181000,366.753998 252.347855,368.760895 
	C248.743668,370.647919 246.070312,373.634399 243.028473,377.146759 
z"/>
<path fill="#4e448b" opacity="1.000000" stroke="none" 
	d="
M379.028534,322.027985 
	C381.876801,319.193939 384.605042,316.725159 387.032776,313.989716 
	C389.366669,311.360016 391.458221,310.990295 394.207855,313.414642 
	C398.963196,317.607513 403.599426,321.879517 407.556732,326.870728 
	C409.428925,329.232086 409.592224,331.090546 407.327332,333.343475 
	C389.730927,350.846710 372.183380,368.399261 354.683746,385.999207 
	C352.531586,388.163666 351.015076,388.002136 348.914124,385.886963 
	C325.669800,362.485382 301.859528,339.667938 277.612244,317.309174 
	C275.291870,315.169525 275.305695,313.424988 276.847687,310.850800 
	C281.599792,302.917816 287.693939,296.089142 294.106049,289.547180 
	C304.599060,278.841644 315.377869,268.415070 325.810974,257.652618 
	C328.975006,254.388748 331.445831,254.385864 334.645905,257.302124 
	C338.838745,261.123169 342.843140,265.093292 346.556915,269.390076 
	C348.947235,272.155640 349.099396,274.135651 346.242371,276.881012 
	C337.235962,285.535492 328.631836,294.608887 319.615387,303.252441 
	C316.523712,306.216278 316.052277,308.277435 319.391998,311.288452 
	C321.455017,313.148407 322.859558,315.738708 324.559723,318.001160 
	C325.410065,318.069397 326.260406,318.137665 327.110779,318.205902 
	C330.428925,314.300079 333.583466,310.239136 337.103668,306.524780 
	C342.372406,300.965485 347.951385,295.701416 353.287506,290.204102 
	C355.299438,288.131378 357.057556,287.956787 359.323120,289.769012 
	C364.286133,293.738953 368.783020,298.129303 372.787994,303.082733 
	C374.950623,305.757538 374.537720,307.559326 372.188904,309.845551 
	C363.250214,318.546082 354.469818,327.409271 345.859772,335.983124 
	C345.997955,336.852966 345.940887,337.256714 346.115051,337.480347 
	C353.750031,347.283600 353.759064,347.288300 362.534515,338.541016 
	C367.961060,333.131927 373.363739,327.698914 379.028534,322.027985 
z"/>
<path fill="#4e448b" opacity="1.000000" stroke="none" 
	d="
M401.062866,186.231049 
	C406.428650,190.239243 410.755066,194.841095 415.073700,199.483444 
	C418.283478,202.933838 418.481903,205.452927 414.729675,208.950851 
	C406.083679,217.010910 397.883148,225.550339 389.550690,233.943710 
	C388.176758,235.327682 386.445343,236.493057 385.930847,238.483459 
	C385.994324,238.747406 385.985321,238.947281 386.079071,239.065964 
	C394.284973,249.454239 394.428040,249.473785 403.785522,240.186966 
	C410.052124,233.967758 416.353516,227.780563 422.485260,221.430252 
	C424.653595,219.184616 426.430695,218.941177 428.864990,220.934616 
	C433.783600,224.962402 438.256531,229.379684 442.235413,234.353394 
	C444.230469,236.847290 443.918762,238.460251 441.693146,240.638092 
	C433.718781,248.441452 426.074585,256.584564 418.038330,264.321625 
	C412.581665,269.575134 418.694672,271.122009 420.715820,273.990784 
	C423.281067,277.631897 425.414429,276.032501 427.841827,273.557281 
	C437.171997,264.043549 446.720428,254.743027 456.001038,245.182068 
	C458.604675,242.499786 460.723724,242.014038 463.614929,244.518311 
	C468.539520,248.783859 473.134125,253.339111 477.231384,258.416809 
	C478.938446,260.532410 478.764435,262.102661 476.862457,263.995331 
	C459.150085,281.620758 441.469788,299.278625 423.853119,316.999634 
	C421.612549,319.253448 420.064453,318.770599 418.057587,316.763031 
	C394.855591,293.552765 371.248962,270.760437 347.103180,248.532104 
	C344.689758,246.310364 344.583740,244.423279 346.271973,241.627243 
	C350.265808,235.012634 355.086548,229.089798 360.482391,223.631729 
	C372.310822,211.666870 384.237274,199.798889 396.127411,187.895081 
	C397.406921,186.614090 398.558075,184.971848 401.062866,186.231049 
z"/>
<path fill="#4e448b" opacity="1.000000" stroke="none" 
	d="
M398.474457,632.918274 
	C380.346069,635.563538 365.942749,628.012268 352.243683,618.210999 
	C348.997742,615.888672 345.454590,613.963440 342.318451,611.510071 
	C337.110107,607.435486 336.114624,600.849548 339.678070,596.058044 
	C343.231689,591.279724 349.183167,590.395447 354.810547,593.954346 
	C361.564392,598.225769 368.277344,602.563416 374.958069,606.948425 
	C388.133667,615.596497 406.851746,612.341309 415.084381,598.910461 
	C430.045807,574.502136 444.339935,549.684082 458.859131,525.005493 
	C477.261169,493.727142 495.615204,462.420502 513.978577,431.119385 
	C519.875183,421.068359 525.670776,410.957458 531.635986,400.947479 
	C535.660767,394.193634 541.581787,392.087128 547.029236,395.205780 
	C552.748108,398.479858 554.325073,404.941040 550.662781,411.233673 
	C539.612000,430.221344 528.450317,449.144379 517.347839,468.101959 
	C497.074036,502.719513 476.830627,537.354858 456.534821,571.959534 
	C449.125885,584.591858 441.742950,597.242981 434.095001,609.730530 
	C426.038483,622.885132 413.880554,630.058838 398.474457,632.918274 
z"/>
<path fill="#4e448b" opacity="1.000000" stroke="none" 
	d="
M149.749695,464.266846 
	C146.703522,461.392120 144.111084,458.506378 141.080353,456.195404 
	C137.240356,453.267334 137.661880,450.519104 140.073807,446.897888 
	C145.000626,439.500793 150.827744,432.887543 157.024780,426.592773 
	C167.077942,416.381134 177.391907,406.423798 187.335144,396.107880 
	C190.195740,393.140076 192.190247,393.597473 194.839661,395.949402 
	C199.081985,399.715363 203.123856,403.648193 206.892242,407.904877 
	C209.748581,411.131439 209.956696,413.410400 206.549377,416.617523 
	C196.976196,425.628296 187.764267,435.022797 178.107986,444.564209 
	C181.225876,449.088226 185.109207,452.109894 188.622421,455.771332 
	C193.222015,452.522247 196.446274,448.471832 200.117096,444.916107 
	C204.066132,441.090942 207.894058,437.141022 211.785568,433.256256 
	C218.134552,426.918243 218.198196,426.857758 224.658966,432.891663 
	C227.819061,435.842926 230.643158,439.150818 233.737930,442.175995 
	C236.992386,445.357300 237.111877,447.930664 233.514954,451.253784 
	C226.666367,457.581085 220.226379,464.353210 213.677567,471.000519 
	C212.190201,472.510284 210.341064,473.783661 208.735580,476.946808 
	C215.108582,483.003235 221.490784,489.050018 227.848511,495.122406 
	C229.534943,496.733185 231.034836,498.555939 232.817307,500.045746 
	C235.751617,502.498383 235.526947,504.836365 233.447052,507.802155 
	C229.297104,513.719849 224.261047,518.750549 218.976425,523.617065 
	C215.911316,526.439636 213.709808,526.409851 210.672455,523.292542 
	C201.604218,513.985596 192.271545,504.932404 182.922806,495.903656 
	C172.017227,485.371368 160.985657,474.969543 149.749695,464.266846 
z"/>
</svg>