<svg version="1.1" id="Layer_1" xmlns="http://www.w3.org/2000/svg" xmlns:xlink="http://www.w3.org/1999/xlink" x="0px" y="0px"
	 width="30pt" viewBox="0 0 352 320" enable-background="new 0 0 352 320" xml:space="preserve">
<path fill="#f9fff8" opacity="1.000000" stroke="none" 
	d="
M114.759033,38.583469 
	C126.151810,33.770016 137.722229,32.205078 149.637894,31.570562 
	C175.112946,30.214012 200.593872,30.491806 226.063843,30.838728 
	C240.987564,31.042002 256.054871,30.708462 270.723175,34.468491 
	C301.448944,42.344646 321.749969,65.834877 325.389435,97.304062 
	C326.729828,108.893875 327.475891,120.487267 327.317444,132.145340 
	C326.950958,159.112915 328.305084,186.100754 326.323944,213.049576 
	C323.329895,253.775955 298.648773,281.443329 260.167206,285.286469 
	C224.985107,288.800079 189.652573,287.788727 154.359787,286.528595 
	C145.706085,286.219604 137.043625,286.020782 128.591187,283.968994 
	C97.320381,276.378113 76.749954,253.102570 72.656898,221.050949 
	C71.347595,210.798111 70.676582,200.531403 70.699463,190.202606 
	C70.751862,166.546967 70.606339,142.889694 70.848076,119.236229 
	C70.958488,108.433273 71.908943,97.659241 74.613274,87.113968 
	C80.342728,64.772545 93.355408,48.454929 114.759033,38.583469 
M109.023727,250.481247 
	C116.597687,257.695648 125.537766,262.301239 135.853775,263.923615 
	C151.696136,266.415131 167.739761,266.022797 183.690308,266.498474 
	C208.001190,267.223419 232.314636,266.225311 256.599457,264.727875 
	C277.314972,263.450470 295.259766,249.684708 301.667969,229.991837 
	C303.845459,223.300217 305.271393,216.395248 305.525177,209.453156 
	C306.846039,173.327271 307.773712,137.184692 304.656342,101.095085 
	C302.566864,76.905319 286.723694,58.898842 262.982239,54.341122 
	C246.565216,51.189499 229.786026,52.096901 213.172852,51.535549 
	C188.858368,50.713970 164.529861,51.740383 140.261688,53.422558 
	C129.744370,54.151577 120.244965,58.136616 111.976837,64.839561 
	C97.373970,76.678055 93.246094,93.143753 92.418571,110.688522 
	C90.887199,143.156281 90.745125,175.661560 92.437889,208.125549 
	C93.247063,223.644104 96.647873,238.536957 109.023727,250.481247 
z"/>
<path fill="#f9fff8" opacity="1.000000" stroke="none" 
	d="
M137.186218,173.460114 
	C129.987823,138.891998 148.834869,112.862427 171.499313,101.983345 
	C208.466064,84.239059 253.263611,107.074890 260.372650,147.448547 
	C267.148193,185.927994 239.313751,221.023346 200.375443,222.043564 
	C170.601608,222.823639 144.961380,203.899872 137.186218,173.460114 
M173.708298,125.210876 
	C161.660995,134.330505 155.513580,146.729828 156.609894,161.527298 
	C158.445526,186.303848 178.758224,203.073135 203.475555,200.538925 
	C225.381302,198.292969 242.125839,178.906113 240.395798,156.534134 
	C237.802811,123.002853 202.266495,106.288307 173.708298,125.210876 
z"/>
<path fill="#f9fff8" opacity="1.000000" stroke="none" 
	d="
M272.769409,106.196716 
	C263.128906,108.458588 254.782303,103.566872 252.901169,94.880539 
	C251.004425,86.122131 256.063995,78.451096 265.161346,76.292297 
	C271.555603,74.774940 279.237946,78.689789 281.993591,84.869797 
	C285.056488,91.738914 283.019928,99.820557 277.092712,103.989807 
	C275.884918,104.839378 274.475250,105.401924 272.769409,106.196716 
z"/>
</svg>