<?xml version="1.0" standalone="no"?>
<!DOCTYPE svg PUBLIC "-//W3C//DTD SVG 20010904//EN"
 "http://www.w3.org/TR/2001/REC-SVG-20010904/DTD/svg10.dtd">
<svg version="1.0" xmlns="http://www.w3.org/2000/svg"
 width="55pt" height="59pt" viewBox="0 0 366.000000 480.000000"
 preserveAspectRatio="xMidYMid meet">

<g transform="translate(0.000000,480.000000) scale(0.100000,-0.100000)"
fill="#4e448b" stroke="none">
<path d="M1600 4579 c-14 -6 -49 -27 -78 -47 -51 -35 -58 -37 -140 -38 -102
-1 -145 -16 -193 -69 -19 -20 -48 -52 -65 -70 -21 -23 -43 -35 -70 -40 -103
-16 -186 -83 -215 -173 -14 -46 -52 -88 -103 -114 -75 -38 -125 -117 -126
-196 0 -55 -19 -98 -63 -143 -19 -20 -45 -56 -57 -80 -21 -40 -22 -52 -16
-149 7 -104 6 -108 -24 -171 -41 -87 -41 -151 0 -238 30 -63 31 -67 24 -171
-6 -97 -5 -109 16 -149 12 -24 38 -60 57 -80 44 -45 63 -88 63 -143 1 -77 51
-158 121 -193 46 -23 99 -75 99 -96 0 -10 -122 -352 -272 -760 -208 -569 -269
-745 -261 -758 5 -9 23 -17 39 -19 16 -1 162 24 324 57 251 50 297 57 310 46
8 -8 101 -117 205 -244 105 -126 196 -232 204 -236 38 -16 54 20 257 574 111
304 205 555 208 558 3 3 10 -5 15 -18 107 -278 436 -1100 447 -1117 30 -47 50
-28 243 223 101 132 191 241 200 243 10 2 149 -22 311 -52 308 -58 331 -59
330 -13 -1 12 -126 336 -279 721 l-277 699 18 41 c47 103 53 111 103 138 92
49 145 130 145 221 0 52 13 79 68 140 63 69 77 110 67 196 -12 109 -9 135 21
187 25 42 29 60 29 124 0 64 -4 82 -29 124 -30 52 -33 78 -21 187 10 86 -4
127 -67 196 -55 61 -68 88 -68 140 0 90 -55 175 -141 218 -53 27 -70 48 -93
112 -32 90 -94 142 -196 164 -49 10 -63 20 -130 89 -65 66 -82 79 -127 89 -29
7 -70 10 -95 6 -49 -7 -107 11 -143 45 -56 52 -160 64 -260 29 l-59 -20 -61
20 c-65 22 -153 26 -195 10z m147 -89 c74 -26 147 -25 217 1 49 19 62 20 96
10 21 -6 52 -23 69 -36 49 -42 99 -57 180 -57 95 2 131 -14 176 -77 42 -59 81
-85 150 -102 97 -23 123 -45 155 -131 23 -61 71 -113 139 -147 51 -27 77 -72
85 -149 7 -72 31 -124 76 -167 61 -57 66 -78 55 -225 -7 -82 -6 -87 24 -142
20 -37 31 -72 31 -98 0 -26 -11 -61 -31 -98 -30 -55 -31 -60 -24 -142 11 -147
6 -168 -55 -225 -45 -43 -69 -95 -76 -167 -8 -77 -34 -122 -85 -149 -69 -35
-117 -86 -140 -149 -28 -77 -59 -105 -139 -125 -81 -21 -121 -47 -166 -108
-44 -61 -82 -77 -179 -77 -82 0 -129 -14 -176 -55 -17 -13 -48 -30 -69 -36
-34 -10 -47 -9 -96 10 -71 27 -148 27 -216 0 -65 -25 -100 -20 -168 27 -70 48
-94 56 -178 55 -91 -1 -129 14 -172 70 -55 70 -104 101 -178 114 -58 9 -107
54 -129 117 -24 66 -64 113 -130 150 -66 37 -90 73 -98 147 -10 88 -22 116
-80 180 -58 65 -75 115 -56 165 21 53 13 127 -20 196 -39 82 -39 118 0 200 33
69 39 127 21 190 -18 61 -3 105 55 171 58 64 70 92 80 180 8 74 32 110 98 147
66 37 106 84 130 150 22 63 71 108 129 117 74 13 123 44 178 114 43 56 80 70
171 70 81 -1 117 9 166 47 35 26 90 53 111 54 7 0 38 -9 69 -20z m-718 -2460
c67 -13 93 -29 127 -79 51 -77 128 -111 245 -108 62 2 70 -1 120 -35 30 -20
67 -42 82 -47 45 -17 125 -13 194 10 35 12 66 19 69 16 6 -6 -472 -1324 -485
-1339 -4 -4 -89 91 -189 213 -100 121 -189 222 -198 226 -8 3 -142 -20 -296
-51 -155 -30 -284 -54 -286 -51 -4 4 416 1164 464 1283 l13 32 43 -30 c24 -17
66 -34 97 -40z m1991 -618 c139 -348 249 -636 246 -639 -3 -3 -127 17 -276 45
-149 28 -277 49 -284 46 -8 -3 -89 -104 -181 -225 -93 -121 -172 -216 -175
-212 -4 4 -109 265 -233 579 l-226 570 32 87 31 87 66 0 c64 0 139 24 154 49
18 28 73 45 156 46 96 1 144 18 188 68 83 94 97 105 152 116 30 6 62 16 70 21
8 5 18 6 22 2 4 -4 120 -292 258 -640z"/>
<path d="M1740 4280 c-498 -53 -893 -419 -985 -915 -25 -129 -16 -344 18 -477
108 -413 438 -722 869 -814 108 -23 323 -23 426 0 183 41 325 106 471 217 197
149 339 370 404 628 31 125 31 378 -1 504 -108 433 -438 753 -869 841 -91 19
-240 26 -333 16z m230 -90 c176 -22 306 -69 450 -165 243 -161 406 -417 451
-705 16 -106 6 -305 -21 -405 -104 -387 -405 -670 -805 -757 -36 -7 -119 -12
-205 -12 -122 1 -160 6 -240 27 -364 98 -643 375 -742 737 -20 74 -23 108 -23
260 0 152 3 186 23 260 47 173 139 330 272 466 218 222 531 331 840 294z"/>
<path d="M1963 3175 c-224 -218 -410 -394 -415 -393 -4 2 -68 76 -143 166 -75
90 -143 166 -152 169 -23 9 -48 -10 -51 -38 -2 -18 33 -67 148 -204 164 -197
190 -222 213 -209 8 5 207 195 441 423 305 296 426 419 426 435 0 27 -18 46
-42 46 -10 0 -199 -176 -425 -395z"/>
</g>
</svg>
