<?xml version="1.0" standalone="no"?>
<!DOCTYPE svg PUBLIC "-//W3C//DTD SVG 20010904//EN"
 "http://www.w3.org/TR/2001/REC-SVG-20010904/DTD/svg10.dtd">
<svg version="1.0" xmlns="http://www.w3.org/2000/svg"
 width="50" height="59" viewBox="0 0 512.000000 512.000000"
 preserveAspectRatio="xMidYMid meet">

<g transform="translate(0.000000,512.000000) scale(0.100000,-0.100000)"
fill="#4e448b" stroke="none">
<path d="M2380 5114 c-19 -2 -78 -9 -130 -14 -330 -36 -695 -160 -990 -336
-375 -224 -680 -529 -904 -904 -175 -292 -291 -632 -338 -990 -16 -123 -16
-497 0 -620 82 -623 356 -1150 820 -1581 256 -239 575 -425 922 -539 274 -91
491 -124 800 -124 228 0 329 9 530 50 689 141 1304 583 1674 1204 175 292 291
632 338 990 16 123 16 497 0 620 -47 358 -163 698 -338 990 -224 375 -529 680
-904 904 -289 173 -634 291 -980 336 -88 12 -438 21 -500 14z m535 -178 c408
-65 776 -221 1105 -469 125 -95 356 -327 451 -453 249 -331 401 -694 466
-1109 25 -154 25 -536 0 -690 -39 -249 -108 -476 -211 -690 -124 -259 -261
-451 -471 -660 -211 -211 -387 -337 -650 -465 -219 -107 -444 -177 -700 -217
-154 -25 -536 -25 -690 0 -416 65 -784 220 -1115 470 -125 95 -356 327 -451
453 -249 331 -401 694 -466 1109 -25 154 -25 536 0 690 39 249 108 476 211
690 124 259 261 451 471 660 211 211 387 337 650 465 260 127 525 201 840 234
88 9 464 -3 560 -18z"/>
<path d="M2245 4620 c-679 -105 -1257 -533 -1559 -1154 -141 -290 -206 -575
-206 -906 0 -331 65 -616 206 -906 307 -632 899 -1063 1592 -1158 130 -18 407
-21 532 -5 856 106 1555 722 1770 1559 59 229 77 555 44 792 -63 455 -265 860
-594 1188 -328 329 -733 531 -1188 594 -156 22 -441 20 -597 -4z m595 -156
c552 -81 1058 -411 1350 -883 197 -317 293 -653 292 -1021 -1 -525 -196 -995
-565 -1362 -376 -372 -832 -560 -1362 -560 -318 0 -572 60 -856 202 -184 93
-321 191 -485 347 -249 237 -441 573 -525 918 -68 280 -68 630 0 910 114 469
419 899 822 1158 287 185 594 286 944 311 84 6 274 -4 385 -20z"/>
<path d="M2480 4115 l0 -235 80 0 80 0 0 235 0 235 -80 0 -80 0 0 -235z"/>
<path d="M1240 3775 l-55 -55 158 -158 157 -157 55 55 55 55 -158 158 -157
157 -55 -55z"/>
<path d="M3615 3670 l-160 -160 55 -55 55 -55 160 160 160 160 -55 55 -55 55
-160 -160z"/>
<path d="M2480 3102 l0 -517 383 -383 382 -382 55 55 55 55 -358 358 -357 357
0 488 0 487 -80 0 -80 0 0 -518z"/>
<path d="M770 2560 l0 -80 210 0 210 0 0 80 0 80 -210 0 -210 0 0 -80z"/>
<path d="M3930 2560 l0 -80 210 0 210 0 0 80 0 80 -210 0 -210 0 0 -80z"/>
<path d="M3510 1665 l-55 -55 160 -160 160 -160 55 55 55 55 -160 160 -160
160 -55 -55z"/>
<path d="M1340 1555 l-155 -155 55 -55 55 -55 157 157 158 158 -52 52 c-29 29
-55 53 -58 53 -3 0 -75 -70 -160 -155z"/>
<path d="M2480 1005 l0 -235 80 0 80 0 0 235 0 235 -80 0 -80 0 0 -235z"/>
</g>
</svg>
