<?xml version="1.0" standalone="no"?>
<!DOCTYPE svg PUBLIC "-//W3C//DTD SVG 20010904//EN"
 "http://www.w3.org/TR/2001/REC-SVG-20010904/DTD/svg10.dtd">
<svg version="1.0" xmlns="http://www.w3.org/2000/svg"
 width="50" height="59" viewBox="0 0 466.000000 482.000000"
 preserveAspectRatio="xMidYMid meet">

<g transform="translate(0.000000,482.000000) scale(0.100000,-0.100000)"
fill="#4e448b" stroke="none">
<path d="M1880 4531 c-55 -17 -110 -52 -143 -92 -65 -76 -67 -89 -67 -511 0
-208 -2 -378 -4 -378 -2 0 -30 14 -61 30 -45 24 -70 30 -118 30 -122 0 -198
-66 -244 -209 -108 -339 -448 -840 -916 -1351 -79 -86 -97 -111 -97 -137 0
-41 42 -77 79 -68 46 12 361 367 572 645 232 306 422 636 494 858 30 90 57
122 107 122 55 0 124 -48 171 -120 15 -22 17 -72 17 -465 0 -257 -4 -467 -11
-504 -17 -106 -46 -177 -144 -356 -279 -508 -445 -1032 -445 -1409 0 -58 3
-67 26 -85 34 -27 59 -26 88 2 20 20 24 37 30 131 7 106 36 302 56 378 9 33
15 38 48 43 106 17 192 42 267 79 l84 41 3 -185 c3 -168 5 -189 25 -226 36
-67 70 -101 131 -131 l57 -28 699 -3 698 -3 -6 -42 c-8 -54 8 -148 34 -201 61
-128 209 -190 359 -152 87 22 153 60 228 130 112 104 173 236 179 385 l3 83
43 31 c59 41 125 125 154 194 36 90 47 158 41 263 -7 127 -40 214 -116 310
l-20 25 49 51 c174 184 188 513 29 704 -93 112 -226 147 -362 94 -15 -5 -17
75 -19 908 -3 907 -3 913 -24 959 -26 55 -79 111 -137 141 l-42 23 -885 2
c-487 1 -896 -2 -910 -6z m1778 -150 c77 -40 72 37 72 -1050 l0 -972 -24 -48
c-76 -150 -77 -384 0 -520 34 -61 34 -151 0 -195 -36 -47 -74 -129 -91 -193
-19 -73 -20 -222 -2 -290 l14 -52 -56 -28 c-68 -34 -186 -150 -221 -216 l-25
-47 -712 2 c-702 3 -712 3 -740 24 -15 11 -36 36 -46 55 -16 32 -17 131 -15
1746 l3 1712 21 28 c11 15 36 36 55 45 32 17 94 18 882 18 814 0 849 -1 885
-19z m457 -2025 c74 -57 122 -188 112 -311 -14 -179 -124 -315 -247 -303 -67
7 -105 39 -148 127 -36 72 -37 79 -36 180 0 85 4 117 22 162 61 153 198 220
297 145z m-2475 -997 c-58 -49 -249 -129 -309 -129 -28 0 130 389 257 633 l77
147 3 -312 3 -313 -31 -26z m2392 222 c35 -13 84 -68 109 -120 68 -146 37
-355 -70 -459 -104 -101 -229 -67 -297 80 -26 57 -29 73 -29 174 0 110 0 112
40 190 52 101 104 144 175 144 27 0 59 -4 72 -9z m-297 -690 c50 -46 106 -76
158 -86 45 -9 51 -26 37 -102 -14 -81 -53 -154 -117 -223 -64 -69 -137 -109
-215 -117 -262 -27 -234 383 36 538 28 16 53 29 55 29 2 0 23 -18 46 -39z"/>
<path d="M2340 4223 c-25 -32 -20 -69 12 -95 18 -17 54 -18 415 -18 450 0 452
0 453 76 0 65 8 64 -448 64 l-411 0 -21 -27z"/>
<path d="M2672 3470 c-330 -46 -589 -289 -657 -615 -12 -59 -15 -152 -15 -465
0 -377 1 -391 20 -410 23 -23 68 -26 96 -6 18 14 19 34 25 433 6 467 6 469 82
606 107 191 295 306 515 315 131 5 205 -9 311 -60 158 -75 288 -234 331 -403
18 -72 20 -111 20 -465 0 -377 1 -388 21 -414 26 -33 77 -36 105 -5 18 20 19
42 18 428 0 386 -1 410 -22 486 -62 226 -215 411 -418 506 -133 63 -293 88
-432 69z"/>
<path d="M2656 3219 c-22 -5 -48 -17 -58 -26 -27 -24 -20 -81 12 -104 22 -17
32 -18 93 -7 83 14 172 1 253 -36 65 -30 91 -32 122 -10 30 21 30 73 -1 102
-75 71 -289 112 -421 81z"/>
<path d="M2349 3038 c-69 -75 -125 -205 -135 -316 -5 -59 -4 -70 16 -94 40
-51 120 -23 120 42 0 84 42 197 100 270 35 44 38 82 10 110 -31 31 -76 26
-111 -12z"/>
<path d="M2790 2950 c-11 -11 -20 -31 -20 -45 0 -30 41 -75 68 -75 28 0 99
-51 126 -91 13 -19 29 -52 34 -73 20 -72 69 -96 120 -60 50 34 7 179 -78 264
-48 48 -150 100 -197 100 -20 0 -41 -8 -53 -20z"/>
<path d="M2557 2909 c-57 -38 -112 -111 -138 -184 -15 -44 -19 -82 -19 -198 0
-132 2 -145 20 -162 25 -23 76 -24 98 -1 14 14 18 43 22 164 5 138 7 150 33
194 15 26 42 57 60 69 44 31 57 48 57 81 0 32 -34 68 -65 68 -12 0 -42 -14
-68 -31z"/>
<path d="M3227 2728 c-29 -23 -37 -67 -37 -203 0 -147 6 -176 45 -201 21 -14
30 -14 54 -4 46 19 53 50 49 225 -3 151 -4 158 -27 176 -27 22 -60 24 -84 7z"/>
<path d="M2691 2703 c-73 -36 -114 -152 -71 -205 38 -49 120 -29 120 29 0 58
25 67 72 28 16 -14 40 -25 52 -25 30 0 66 40 66 72 0 31 -40 83 -81 103 -37
20 -116 19 -158 -2z"/>
<path d="M2253 2480 c-34 -14 -43 -42 -43 -133 0 -100 16 -130 68 -130 59 0
72 23 72 134 0 93 -1 98 -26 118 -29 23 -38 24 -71 11z"/>
<path d="M3027 2472 c-14 -16 -17 -44 -17 -189 0 -152 2 -172 18 -186 29 -26
77 -22 101 9 19 24 21 40 21 176 0 182 -9 208 -76 208 -17 0 -38 -8 -47 -18z"/>
<path d="M2629 2411 c-20 -16 -24 -28 -24 -76 0 -48 4 -60 24 -76 13 -10 33
-19 46 -19 13 0 33 9 46 19 20 16 24 28 24 76 0 48 -4 60 -24 76 -13 10 -33
19 -46 19 -13 0 -33 -9 -46 -19z"/>
<path d="M2821 2364 c-19 -24 -21 -40 -21 -154 0 -114 2 -130 21 -154 25 -32
70 -35 99 -6 18 18 20 33 20 160 0 127 -2 142 -20 160 -29 29 -74 26 -99 -6z"/>
<path d="M2426 2259 c-24 -19 -26 -26 -26 -95 0 -85 18 -114 70 -114 50 0 70
32 70 116 0 66 -2 74 -26 93 -15 12 -34 21 -44 21 -10 0 -29 -9 -44 -21z"/>
<path d="M2722 1349 c-114 -21 -192 -118 -192 -241 0 -70 19 -121 63 -166 122
-127 321 -98 400 57 93 185 -64 387 -271 350z m109 -149 c22 -13 49 -61 49
-90 0 -34 -28 -79 -61 -96 -102 -52 -201 86 -120 167 23 23 38 29 71 29 23 0
50 -5 61 -10z"/>
</g>
</svg>
