<svg version="1.1" id="Layer_1" xmlns="http://www.w3.org/2000/svg" xmlns:xlink="http://www.w3.org/1999/xlink" x="0px" y="0px"
	 width="30pt" viewBox="0 0 304 272" enable-background="new 0 0 304 272" xml:space="preserve">
<path fill="#f9fff8" opacity="1.000000" stroke="none" 
	d="
M88.066757,203.550415 
	C71.775917,193.129578 63.218529,178.172256 60.352001,159.678635 
	C60.124374,158.210083 59.295246,157.272629 58.490902,156.257492 
	C48.421658,143.549408 45.158665,129.053864 46.594162,113.107224 
	C46.913509,109.559669 49.195347,110.075104 51.616444,109.656288 
	C42.397388,87.382515 46.305386,67.103348 59.882740,46.777569 
	C82.845833,76.719421 111.174667,97.120621 149.214005,102.481056 
	C150.428360,97.540489 149.576523,92.706657 150.276245,87.993118 
	C154.128342,62.044399 175.555344,48.138947 196.036652,44.786869 
	C212.965729,42.016163 228.443527,45.856888 242.135498,56.289520 
	C244.490158,58.083645 246.663879,57.829052 249.146164,56.959064 
	C258.258789,53.765289 267.391998,50.630058 276.523621,47.490700 
	C278.072266,46.958302 279.651154,46.513973 282.577271,45.607063 
	C279.395844,54.972523 276.560760,63.318409 273.668060,71.833961 
	C279.033417,74.131386 284.200256,70.840431 289.051147,72.344643 
	C289.958557,74.309700 288.550354,75.302483 287.706207,76.455276 
	C281.308075,85.192673 275.018921,94.014267 268.434204,102.609222 
	C262.981354,109.726784 261.496246,117.431755 261.743713,126.409355 
	C263.197327,179.141968 241.655365,230.254868 177.014709,248.056030 
	C128.211365,261.495819 81.345032,255.612366 37.728188,228.844757 
	C36.643669,228.179199 35.227264,227.807083 34.904850,226.155106 
	C36.100174,224.305710 38.255436,224.255341 40.068569,223.629959 
	C55.647491,218.256500 71.466438,213.564987 86.711533,207.253433 
	C87.934532,206.747101 91.768715,206.682724 88.066757,203.550415 
M163.411209,120.280479 
	C125.041367,118.074532 91.795921,104.025253 64.052116,76.314972 
	C61.176735,85.410713 62.800903,93.250740 65.734245,100.928757 
	C69.923965,111.895348 78.765663,118.784531 87.689491,125.586510 
	C91.697388,128.641434 95.601379,131.832672 99.552521,134.962036 
	C99.345917,135.433441 99.139305,135.904831 98.932693,136.376221 
	C87.537346,135.253174 76.141991,134.130112 64.056229,132.939026 
	C69.388405,147.676636 79.111267,156.621964 93.381577,160.594315 
	C101.386063,162.822495 109.504059,164.643646 117.575195,166.630798 
	C118.686058,166.904282 119.966225,166.853470 120.384621,169.027710 
	C108.790962,172.212845 97.134819,175.415146 84.847198,178.790939 
	C91.406937,187.809601 99.455292,192.746933 109.290947,194.627365 
	C117.634460,196.222534 126.165375,196.170181 134.623291,196.735672 
	C137.522186,196.929489 140.597214,196.351547 144.040054,198.672165 
	C121.354195,209.754822 99.184410,220.399002 75.645432,228.797592 
	C77.570663,230.706589 79.403831,231.109528 81.134041,231.623825 
	C113.616302,241.278885 146.179825,241.369629 178.369675,230.896240 
	C209.108246,220.895050 230.477951,200.759827 240.473282,169.482803 
	C245.564102,153.552841 246.158295,137.128204 245.680542,120.588829 
	C245.410843,111.252235 248.320496,102.914093 253.883942,95.448135 
	C255.101242,93.814583 256.684113,92.341446 257.129822,90.174500 
	C254.935776,89.500206 252.732910,90.159775 251.072861,88.328224 
	C251.731094,83.072914 255.212921,78.423271 255.352112,73.047333 
	C253.195435,72.047829 251.632263,73.059906 250.134506,73.517090 
	C244.048920,75.374657 238.613754,74.413025 233.813766,70.228935 
	C224.748169,62.326553 214.094116,59.491562 202.302155,60.306805 
	C184.122162,61.563686 163.373276,75.301468 166.206573,99.573914 
	C166.973923,106.147758 169.180191,112.557617 168.503525,119.311394 
	C167.355698,120.667801 165.771683,120.203949 163.411209,120.280479 
z"/>
</svg>