<svg version="1.1" id="Layer_1" xmlns="http://www.w3.org/2000/svg" xmlns:xlink="http://www.w3.org/1999/xlink" x="0px" y="0px"
	 width="100%" viewBox="0 0 200 54" enable-background="new 0 0 200 54" xml:space="preserve">
<path fill="#FCF7F7" opacity="1.000000" stroke="none" 
	d="
M163.722260,1.361609 
	C166.370560,1.000000 168.741104,1.000000 171.555832,1.000000 
	C176.703339,8.384461 178.898773,16.815676 181.798111,24.932232 
	C182.787247,27.701248 181.179672,30.497454 179.906693,33.025612 
	C177.806030,37.197613 176.025497,41.507397 174.174683,45.787079 
	C173.590271,47.138416 172.777435,48.746204 174.785629,49.623913 
	C176.502914,50.374481 178.101212,49.984215 179.077087,48.242786 
	C180.299454,46.061478 181.089951,43.669510 182.259537,41.460556 
	C182.947037,40.162113 183.451355,38.487736 185.336044,38.642265 
	C187.041656,38.782116 187.788605,40.217209 188.411926,41.607182 
	C190.375259,45.985405 191.619202,50.743622 195.078537,54.641792 
	C132.312439,55.000000 69.624878,55.000000 6.468657,55.000000 
	C5.435120,53.598160 6.812635,53.422573 7.607778,52.553432 
	C8.125944,51.807045 8.073603,51.234386 7.860085,50.313187 
	C7.379819,44.973499 7.344370,39.975739 7.889721,34.603302 
	C8.218598,33.563915 8.764400,32.959446 8.258059,31.806042 
	C7.902931,30.334822 7.972256,29.270844 8.794647,27.955116 
	C9.625769,27.429741 10.179755,27.369469 11.140396,27.641848 
	C14.365194,30.477598 14.688597,34.288048 15.954403,37.652058 
	C17.236738,41.059986 18.300934,44.551693 19.863966,47.850338 
	C20.652193,49.513821 21.907011,50.428734 23.849268,49.998199 
	C25.616043,49.606567 26.126444,48.250866 26.334309,46.692284 
	C26.531927,45.210541 26.483118,43.716820 26.483858,42.227028 
	C26.489464,30.966017 26.464611,19.704939 26.503624,8.444046 
	C26.511564,6.152128 26.179918,3.780766 27.745331,1.332927 
	C30.700014,1.000000 33.400028,1.000000 36.550018,1.000000 
	C38.849686,3.083027 38.545254,5.657835 38.554619,8.125386 
	C38.597553,19.435949 38.538231,30.746828 38.586834,42.057339 
	C38.612492,48.027271 39.329514,48.696621 45.264679,48.317032 
	C48.581608,48.104897 51.869858,47.553883 55.175186,47.189606 
	C56.574806,47.035358 57.876247,46.510406 57.781822,44.785824 
	C57.675667,42.847012 56.143196,43.049816 54.812748,43.063950 
	C54.314075,43.069248 53.820389,43.168819 53.323174,43.206188 
	C44.321857,43.882671 41.300179,40.019310 43.765434,31.210913 
	C44.709545,27.837580 47.329838,27.743904 50.007694,27.416149 
	C51.569077,27.225044 53.745995,27.544302 53.879520,25.232637 
	C54.035889,22.525431 51.649384,22.844355 49.935123,22.569069 
	C44.091228,21.630627 40.972416,14.174602 44.500011,9.427033 
	C46.119274,7.247762 48.657913,7.282451 50.899021,7.519501 
	C55.570484,8.013618 58.576996,6.502067 59.741165,1.337991 
	C61.714359,1.000000 63.428715,1.000000 65.571533,1.000000 
	C67.520546,4.474956 68.899384,7.702211 73.641212,8.231981 
	C76.667252,8.570059 76.496925,11.943061 76.534554,14.411604 
	C76.663902,22.897097 76.510139,31.385120 76.631805,39.870243 
	C76.660591,41.877605 75.882149,45.357059 78.326012,45.368538 
	C81.533058,45.383602 80.293198,41.772396 80.339478,39.732319 
	C80.531898,31.249613 80.415001,22.760834 80.424377,14.274319 
	C80.428589,10.460971 81.605804,7.683157 85.887474,7.433611 
	C89.639343,7.214944 89.097031,3.714854 90.737961,1.341881 
	C92.714355,1.000000 94.428719,1.000000 96.571533,1.000000 
	C98.847672,3.079454 98.547752,5.650602 98.558640,8.115856 
	C98.602615,18.084084 98.570503,28.052551 98.580688,38.020920 
	C98.582214,39.514389 98.520309,41.012852 98.789421,42.494617 
	C99.010529,43.712074 99.438232,44.774925 100.900208,44.845699 
	C102.687080,44.932205 103.117081,43.669277 103.270515,42.265774 
	C103.578201,39.451401 103.347321,36.621262 103.444588,33.799866 
	C103.643402,28.032707 104.260307,27.331253 109.881874,26.434282 
	C110.540215,26.329239 109.725021,26.518549 110.377113,26.381493 
	C111.781540,26.086317 113.650429,26.305111 113.818764,24.267393 
	C114.018677,21.847311 111.984268,21.619066 110.397430,21.674669 
	C104.007156,21.898586 103.106361,18.340666 103.590279,12.214137 
	C103.802315,9.529665 105.183990,7.937046 107.933693,7.635907 
	C108.926186,7.527211 109.939415,7.323847 110.912636,7.466521 
	C115.564743,8.148524 118.573051,6.488366 119.741318,1.337763 
	C121.714355,1.000000 123.428719,1.000000 125.571533,1.000000 
	C127.840027,3.072689 127.579689,5.635502 127.590401,8.102220 
	C127.636497,18.723827 127.557312,29.345919 127.630569,39.967278 
	C127.670570,45.768204 127.895348,45.966602 133.791733,46.477303 
	C136.924713,46.748657 140.016571,47.599228 143.197876,47.211685 
	C144.587845,47.042355 145.884933,46.691269 145.785828,44.880638 
	C145.704788,43.400116 144.587738,43.048748 143.394012,42.820354 
	C143.067993,42.757980 142.736984,42.731052 142.408539,42.684097 
	C132.544037,41.273830 132.422119,41.149952 132.397247,31.398502 
	C132.377350,23.598207 132.367676,15.797730 132.408997,7.997541 
	C132.420334,5.855539 132.235565,3.657725 133.729355,1.353938 
	C141.020950,1.000000 148.041901,1.000000 155.531433,1.000000 
	C157.843109,3.072320 157.606125,5.637404 157.616425,8.110559 
	C157.660095,18.585617 157.630188,29.060877 157.636292,39.536060 
	C157.637161,41.032322 157.534958,42.539200 157.722687,44.021477 
	C157.920853,45.586121 157.639481,47.755554 160.041687,47.710022 
	C162.414673,47.665043 162.239243,45.491440 162.267120,43.937992 
	C162.475983,32.300674 162.305283,20.661005 162.381363,9.022514 
	C162.397507,6.552612 162.075027,4.007154 163.722260,1.361609 
z"/>
<path fill="#D9262C" opacity="1.000000" stroke="none" 
	d="
M27.555836,1.000000 
	C28.053650,16.627390 28.066011,32.255142 28.203856,47.881790 
	C28.225430,50.327667 27.562782,51.758804 24.958603,51.667492 
	C22.585514,51.584286 19.722923,53.456703 18.467863,49.365719 
	C16.324492,42.379200 13.773849,35.517632 11.241663,28.268637 
	C10.646238,27.520109 10.166704,27.305346 9.479544,27.921185 
	C9.351929,29.173038 9.327601,30.159216 9.329098,31.514751 
	C9.362672,32.089127 9.370423,32.294147 9.368615,32.806778 
	C9.341993,39.066608 9.324930,45.018833 9.332084,51.431229 
	C9.362984,52.096615 9.369667,52.301838 9.241226,52.783836 
	C8.111765,53.487957 7.117429,53.915306 6.061546,54.671329 
	C1.898590,55.828991 0.768839,54.388702 0.869164,50.070564 
	C1.211069,35.354355 1.222711,20.619860 0.863655,5.904465 
	C0.756585,1.516346 1.987912,0.230937 6.028365,0.983318 
	C6.667945,1.102416 7.348775,1.000000 8.505266,1.000000 
	C12.517325,4.249115 12.633725,9.058380 14.480822,13.074050 
	C16.206976,16.826784 17.356487,20.822163 18.581724,25.214285 
	C18.587637,19.010134 18.555185,13.187340 18.599548,7.365187 
	C18.614536,5.398112 18.363520,3.364129 19.764114,1.285544 
	C22.370558,1.000000 24.741116,1.000000 27.555836,1.000000 
z"/>
<path fill="#D92A30" opacity="1.000000" stroke="none" 
	d="
M195.416656,55.000000 
	C189.110001,51.261204 189.038132,44.164261 185.732864,38.567364 
	C183.241165,40.370289 182.900543,43.122398 181.896408,45.407642 
	C178.861694,52.314304 178.927139,52.343060 170.796326,50.415752 
	C173.772873,43.668877 176.630142,36.961151 179.697067,30.350693 
	C180.984116,27.576603 181.018433,25.080751 179.856903,22.243483 
	C177.084259,15.470738 174.563965,8.594681 171.970886,1.380170 
	C174.370560,1.000000 176.741104,1.000000 179.555832,1.000000 
	C183.360825,3.733652 183.328018,8.346804 185.942017,11.885676 
	C188.248489,8.486660 188.523193,4.221965 191.758026,1.245217 
	C195.000000,1.000000 198.000000,1.000000 201.000000,1.500000 
	C199.180298,9.062740 196.063721,15.641171 193.215805,22.302725 
	C191.866058,25.459892 192.061279,28.195292 193.119980,31.358427 
	C195.675247,38.992981 200.165924,46.027092 200.217834,54.692200 
	C198.611115,55.000000 197.222214,55.000000 195.416656,55.000000 
z"/>
<path fill="#D82A2F" opacity="1.000000" stroke="none" 
	d="
M59.531376,1.000000 
	C59.416786,9.151795 59.415596,9.082803 50.667385,9.233503 
	C48.829868,9.265157 45.997379,8.031041 45.300854,10.300201 
	C44.345345,13.413112 44.085232,17.170469 45.451721,20.072693 
	C46.464310,22.223288 49.756363,20.992847 51.962791,20.846779 
	C55.280396,20.627150 56.194912,21.788401 56.190395,25.049568 
	C56.185890,28.302172 54.916103,28.950298 52.035496,28.886505 
	C49.810440,28.837231 46.499229,27.664608 45.519707,29.789438 
	C44.016918,33.049355 44.833038,36.964630 45.134445,40.589005 
	C45.265560,42.165619 46.788876,41.966244 47.920666,41.906021 
	C50.413296,41.773399 52.898777,41.497372 55.391918,41.386242 
	C57.393597,41.297024 59.838989,40.265106 59.853176,44.037807 
	C59.864723,47.107178 59.563129,49.043995 55.712543,49.062695 
	C50.732254,49.086872 45.731461,49.541706 40.784698,50.168102 
	C37.523514,50.581062 36.844891,49.366642 36.869682,46.380005 
	C36.992661,31.566006 36.932152,16.750486 36.968147,1.467751 
	C44.354252,1.000000 51.708500,1.000000 59.531376,1.000000 
z"/>
<path fill="#D9292E" opacity="1.000000" stroke="none" 
	d="
M119.531380,1.000000 
	C120.026062,1.164408 120.069168,1.328139 120.075737,1.493323 
	C120.381660,9.182790 120.381287,9.182773 112.630699,9.171629 
	C112.297775,9.171150 111.964851,9.172752 111.631927,9.172587 
	C105.400223,9.169502 102.846245,12.862097 105.095589,18.813925 
	C106.187866,21.704147 108.832848,19.914688 110.726273,20.418367 
	C112.605179,20.918184 115.244255,19.064268 116.296577,22.105768 
	C117.674484,26.088295 116.067726,28.221695 111.784256,28.266893 
	C104.127396,28.347685 105.055054,27.242464 104.981583,35.266415 
	C104.957191,37.929596 104.786888,40.609089 105.015305,43.252438 
	C105.295242,46.492077 104.176208,47.573311 100.841873,47.544178 
	C97.606567,47.515911 97.016235,46.241940 97.038651,43.383068 
	C97.146980,29.567728 97.079903,15.751013 97.037506,1.467392 
	C104.354256,1.000000 111.708504,1.000000 119.531380,1.000000 
z"/>
<path fill="#D92E33" opacity="1.000000" stroke="none" 
	d="
M133.555817,1.000000 
	C133.990509,12.646529 134.103424,24.295216 133.898239,35.938293 
	C133.835281,39.510662 134.678314,41.291931 138.561142,40.885719 
	C140.361526,40.697369 142.227493,41.181877 144.038544,41.039871 
	C147.712341,40.751801 148.311356,42.589256 148.330780,45.826630 
	C148.354797,49.834534 145.871292,48.936317 143.651505,48.833557 
	C139.165115,48.625866 134.677338,48.135391 130.197296,48.207493 
	C126.881569,48.260864 125.986755,47.088562 126.022316,43.861954 
	C126.176300,29.887840 126.077858,15.910945 126.035614,1.467530 
	C128.370560,1.000000 130.741104,1.000000 133.555817,1.000000 
z"/>
<path fill="#D8242A" opacity="1.000000" stroke="none" 
	d="
M90.531349,1.000000 
	C91.031281,2.330037 90.942673,3.676068 91.117531,4.986954 
	C91.549667,8.226667 90.310593,9.698072 86.994621,9.150580 
	C83.271019,8.535786 82.120140,10.031813 82.219994,13.805025 
	C82.479622,23.615847 82.216316,33.439480 82.371262,43.254688 
	C82.421532,46.439240 81.906837,48.013054 78.115723,48.041527 
	C73.844597,48.073608 74.716171,45.448978 74.709755,43.095047 
	C74.682556,33.111050 74.693283,23.126940 74.699974,13.142876 
	C74.701332,11.105634 74.909950,8.664493 71.826508,9.223476 
	C65.168648,10.430454 65.578651,6.191880 65.941620,1.452897 
	C74.020897,1.000000 82.041801,1.000000 90.531349,1.000000 
z"/>
<path fill="#D93237" opacity="1.000000" stroke="none" 
	d="
M163.555832,1.000000 
	C163.913910,15.784363 163.868469,30.569210 163.692535,45.352505 
	C163.669373,47.298733 165.047104,50.264187 160.775116,50.112442 
	C157.345688,49.990631 155.799042,49.259060 155.866379,45.315533 
	C156.113205,30.859619 155.967697,16.397005 155.984955,1.468457 
	C158.370560,1.000000 160.741104,1.000000 163.555832,1.000000 
z"/>
<path fill="#FBF5F4" opacity="1.000000" stroke="none" 
	d="
M200.500000,55.000000 
	C198.277252,46.514530 194.359329,38.797626 191.401321,30.749361 
	C190.357437,27.909124 190.216019,25.531473 191.500214,22.732187 
	C194.602219,15.970550 197.402222,9.070363 200.661987,2.113016 
	C201.000000,19.666666 201.000000,37.333332 200.500000,55.000000 
z"/>
<path fill="#FAF2F1" opacity="1.000000" stroke="none" 
	d="
M19.541931,1.000000 
	C20.000000,10.399505 20.000000,19.799009 20.000000,29.198513 
	C19.647587,29.325907 19.295176,29.453300 18.942762,29.580692 
	C15.652460,20.303936 12.362157,11.027181 9.035927,1.375212 
	C12.361287,1.000000 15.722575,1.000000 19.541931,1.000000 
z"/>
<path fill="#F9EBEA" opacity="1.000000" stroke="none" 
	d="
M191.539368,1.000001 
	C190.175613,5.496421 188.351227,9.992842 186.229416,15.222280 
	C183.070328,10.590023 182.153717,5.906573 180.107422,1.349581 
	C183.692902,1.000000 187.385818,1.000000 191.539368,1.000001 
z"/>
<path fill="#E7A6A7" opacity="1.000000" stroke="none" 
	d="
M9.664862,28.163986 
	C9.124590,27.171513 8.472930,25.881699 10.010782,25.523401 
	C10.935494,25.307957 10.943246,26.521574 11.122892,27.580837 
	C10.710523,28.002834 10.331995,28.071972 9.664862,28.163986 
z"/>
<path fill="#E7A6A7" opacity="1.000000" stroke="none" 
	d="
M9.518034,32.996033 
	C9.287992,32.909630 9.216928,32.704880 9.250393,32.192116 
	C9.462285,32.215302 9.569649,32.546490 9.518034,32.996033 
z"/>
<path fill="#E7A6A7" opacity="1.000000" stroke="none" 
	d="
M9.298687,52.991272 
	C9.104336,52.856468 9.102571,52.652328 9.228554,52.169792 
	C9.472582,52.118847 9.618436,52.337570 9.689529,52.578365 
	C9.715332,52.665760 9.562565,52.805874 9.298687,52.991272 
z"/>
</svg>